<svg xmlns="http://www.w3.org/2000/svg" viewBox="0 0 300 192" width="600" height="384">
  <defs></defs>
  <rect width="600" height="384" fill="#ffffff"></rect>
  <g transform="translate(248,4) scale(1.04)">
    <g stroke="#9ab420" stroke-width="5" stroke-linecap="round" stroke-linejoin="round" fill="none">
      <line x1="60" y1="17" x2="60" y2="148"></line>
      <polyline points="60,36 90,36 90,16"></polyline>
      <line x1="60" y1="63" x2="18" y2="63"></line>
      <polyline points="60,96 88,96 88,131"></polyline>
    </g>
    <rect x="56.3" y="32.3" width="7.5" height="7.5" rx="0.5" transform="rotate(45 60 36)" fill="#9ab420"></rect>
    <rect x="56.3" y="59.3" width="7.5" height="7.5" rx="0.5" transform="rotate(45 60 63)" fill="#9ab420"></rect>
    <rect x="56.3" y="92.3" width="7.5" height="7.5" rx="0.5" transform="rotate(45 60 96)" fill="#9ab420"></rect>
    <circle cx="60" cy="8" r="9" fill="#9ab420"></circle><circle cx="60" cy="8" r="3.8" fill="#fff"></circle>
    <polygon points="97.4,11.1 93.1,15.4 86.9,15.4 82.6,11.1 82.6,4.9 86.9,0.6 93.1,0.6 97.4,4.9" fill="#9ab420"></polygon>
    <rect x="87.5" y="5.5" width="5" height="5" fill="#fff"></rect>
    <circle cx="10" cy="63" r="8" fill="#9ab420"></circle><circle cx="10" cy="63" r="3.2" fill="#fff"></circle>
    <circle cx="88" cy="140" r="9" fill="#9ab420"></circle><circle cx="88" cy="140" r="3.8" fill="#fff"></circle>
    <rect x="54.5" y="149.5" width="11" height="11" transform="rotate(45 60 155)" fill="#9ab420"></rect>
    <circle cx="60" cy="155" r="3" fill="#fff"></circle>
    <polygon points="68.3,83.4 63.4,88.3 56.6,88.3 51.7,83.4 51.7,76.6 56.6,71.7 63.4,71.7 68.3,76.6" fill="#9ab420"></polygon>
    <rect x="57.5" y="77.5" width="5" height="5" fill="#fff"></rect>
  </g>
  <text x="300" y="330" text-anchor="middle" font-family="Dancing Script,cursive" font-weight="700" font-size="136" fill="#87adac">kengalia</text>
</svg>