<svg xmlns="http://www.w3.org/2000/svg" viewBox="0 0 300 260" width="600" height="520">
  <defs></defs>
  <rect width="600" height="520" fill="#8b3a1a"></rect>
  <g transform="scale(2)">
    <g stroke="white" stroke-width="1.8" fill="none" stroke-linecap="round">
      <path d="M 184.2,36.0 A 100,100 0 0,1 184.2,224.0"></path>
      <path d="M 115.8,224.0 A 100,100 0 0,1 115.8,36.0"></path>
      <line x1="184.2" y1="36.0" x2="188.0" y2="25.7"></line>
      <line x1="188.0" y1="25.7" x2="185.2" y2="18.1"></line>
      <line x1="188.0" y1="25.7" x2="194.9" y2="21.7"></line>
      <line x1="184.2" y1="224.0" x2="188.0" y2="234.3"></line>
      <line x1="188.0" y1="234.3" x2="194.9" y2="238.3"></line>
      <line x1="188.0" y1="234.3" x2="185.2" y2="241.9"></line>
      <line x1="115.8" y1="224.0" x2="112.0" y2="234.3"></line>
      <line x1="112.0" y1="234.3" x2="114.8" y2="241.9"></line>
      <line x1="112.0" y1="234.3" x2="105.1" y2="238.3"></line>
      <line x1="115.8" y1="36.0" x2="112.0" y2="25.7"></line>
      <line x1="112.0" y1="25.7" x2="105.1" y2="21.7"></line>
      <line x1="112.0" y1="25.7" x2="114.8" y2="18.1"></line>
    </g>
    <g fill="rgba(255,255,255,0.88)">
      <circle cx="185.2" cy="18.1" r="2.2"></circle><circle cx="194.9" cy="21.7" r="2.2"></circle>
      <circle cx="194.9" cy="238.3" r="2.2"></circle><circle cx="185.2" cy="241.9" r="2.2"></circle>
      <circle cx="114.8" cy="241.9" r="2.2"></circle><circle cx="105.1" cy="238.3" r="2.2"></circle>
      <circle cx="105.1" cy="21.7" r="2.2"></circle><circle cx="114.8" cy="18.1" r="2.2"></circle>
    </g>
    <text x="150" y="118" text-anchor="middle" font-family="Dancing Script,cursive" font-weight="700" font-size="38" fill="white">kengalia</text>
    <text x="150" y="155" text-anchor="middle" font-family="Dancing Script,cursive" font-weight="700" font-size="34" fill="white">Attire</text>
    <text x="150" y="176" text-anchor="middle" font-family="Raleway,sans-serif" font-size="8.5" font-weight="300" fill="rgba(255,255,255,0.55)" letter-spacing="4">wear your story</text>
  </g>
</svg>